<?xml version="1.0" encoding="utf-8"?>
<!-- Generator: Adobe Illustrator 26.3.1, SVG Export Plug-In . SVG Version: 6.00 Build 0)  -->
<svg version="1.1" id="Layer_1"
	xmlns="http://www.w3.org/2000/svg"
	xmlns:xlink="http://www.w3.org/1999/xlink" x="0px" y="0px" viewBox="0 0 145.9 26" style="enable-background:new 0 0 145.9 26;" xml:space="preserve">
	<style type="text/css">
	.st0{fill:#36276F;}
	</style>
	<g>
		<path class="st0" d="M83.6,10.4c0-1.5-0.5-2.6-1.4-3.4c-1-0.7-2.4-1.1-4.4-1.1h-4.4v15.4H76v-6.2h2.5l3.7,6.2H85l-4.4-6.8
		C82.7,13.7,83.6,12.3,83.6,10.4z M77.7,13H76V8h1.7c1.1,0,2,0.2,2.6,0.6s0.9,1,0.9,1.9c0,0.9-0.3,1.5-0.8,1.9S78.9,13,77.7,13z"/>
		<path class="st0" d="M91.6,9.4c-1.7,0-3,0.5-3.9,1.6s-1.4,2.6-1.4,4.5c0,1.9,0.5,3.3,1.5,4.4s2.4,1.6,4.3,1.6
		c0.8,0,1.5-0.1,2.1-0.2c0.6-0.1,1.2-0.3,1.8-0.6v-2c-0.7,0.3-1.3,0.5-1.9,0.6c-0.6,0.1-1.2,0.2-1.9,0.2c-1,0-1.9-0.3-2.4-0.9
		c-0.6-0.6-0.9-1.5-0.9-2.6h7.8v-1.3c0-1.6-0.4-2.9-1.3-3.9C94.4,9.9,93.2,9.4,91.6,9.4z M88.9,14.2c0.1-1,0.4-1.7,0.8-2.2
		s1.1-0.7,1.9-0.7s1.4,0.2,1.9,0.7c0.4,0.5,0.7,1.2,0.7,2.2H88.9z"/>
		<path class="st0" d="M105.9,15.4c-0.4-0.3-1.1-0.6-2.1-1c-1.1-0.4-1.9-0.8-2.2-1c-0.3-0.3-0.5-0.6-0.5-0.9c0-0.7,0.7-1.1,2-1.1
		c0.9,0,1.9,0.3,3.2,0.8l0.8-1.9c-1.2-0.6-2.5-0.8-3.9-0.8c-1.4,0-2.5,0.3-3.3,0.8c-0.8,0.6-1.2,1.3-1.2,2.3c0,0.8,0.2,1.5,0.7,2
		s1.4,1,2.7,1.6c0.7,0.3,1.2,0.5,1.6,0.7c0.4,0.2,0.7,0.4,0.8,0.6c0.2,0.2,0.3,0.4,0.3,0.7c0,0.9-0.8,1.4-2.3,1.4
		c-1.2,0-2.5-0.3-3.8-0.9v2.1c0.9,0.5,2.2,0.7,3.7,0.7c1.5,0,2.7-0.3,3.6-0.9s1.2-1.5,1.2-2.6c0-0.6-0.1-1-0.3-1.4
		C106.7,16.1,106.4,15.8,105.9,15.4z"/>
		<path class="st0" d="M117.6,15.4c0,1.5-0.2,2.5-0.7,3.1s-1.3,0.9-2.3,0.9c-0.8,0-1.4-0.2-1.7-0.7c-0.4-0.4-0.5-1.1-0.5-2V9.6h-2.5
		v7.6c0,1.4,0.3,2.5,1,3.2s1.7,1.1,3.2,1.1c0.8,0,1.5-0.2,2.2-0.5c0.6-0.3,1.1-0.7,1.5-1.3h0.1l0.3,1.5h1.9V9.6h-2.5V15.4z"/>
		<rect x="123.6" y="4.9" class="st0" width="2.5" height="16.4"/>
		<path class="st0" d="M132.8,19.1c-0.3-0.3-0.4-0.7-0.4-1.3v-6.2h3.3V9.6h-3.3V7h-1.5L130,9.5l-1.7,0.9v1.1h1.6v6.3
		c0,2.5,1.2,3.7,3.5,3.7c0.5,0,0.9,0,1.3-0.1c0.4-0.1,0.8-0.2,1.1-0.3v-1.9c-0.6,0.2-1.2,0.3-1.8,0.3
		C133.5,19.5,133.1,19.3,132.8,19.1z"/>
		<path class="st0" d="M145.6,16.5c-0.2-0.4-0.5-0.8-1-1.1c-0.4-0.3-1.1-0.6-2.1-1c-1.1-0.4-1.9-0.8-2.2-1c-0.3-0.3-0.5-0.6-0.5-0.9
		c0-0.7,0.7-1.1,2-1.1c0.9,0,1.9,0.3,3.2,0.8l0.8-1.9c-1.2-0.6-2.5-0.8-3.9-0.8c-1.4,0-2.5,0.3-3.3,0.8c-0.8,0.6-1.2,1.3-1.2,2.3
		c0,0.8,0.2,1.5,0.7,2s1.4,1,2.7,1.6c0.7,0.3,1.2,0.5,1.6,0.7c0.4,0.2,0.7,0.4,0.8,0.6c0.2,0.2,0.3,0.4,0.3,0.7
		c0,0.9-0.8,1.4-2.3,1.4c-1.2,0-2.5-0.3-3.8-0.9v2.1c0.9,0.5,2.2,0.7,3.7,0.7c1.5,0,2.7-0.3,3.6-0.9c0.8-0.6,1.2-1.5,1.2-2.6
		C145.9,17.4,145.8,16.9,145.6,16.5z"/>
		<polygon class="st0" points="26.1,21.3 34.2,21.3 34.2,20.3 27.1,20.3 27.1,13.7 33.8,13.7 33.8,12.7 27.1,12.7 27.1,6.9 34.2,6.9 
		34.2,5.9 26.1,5.9 	"/>
		<polygon class="st0" points="45.6,9.6 44.4,9.6 41.1,14.5 37.7,9.6 36.5,9.6 40.5,15.3 36.4,21.3 37.5,21.3 41.1,16.1 44.7,21.3 
		45.9,21.3 41.7,15.3 	"/>
		<path class="st0" d="M53.5,9.2c-1.7,0-3,0.6-3.7,1.8h-0.1l-0.2-1.6h-0.9V26h1v-4.3c0-0.6,0-1.2,0-1.7l0-0.9h0.1
		c0.8,1.3,2.1,2,3.8,2c1.5,0,2.6-0.5,3.5-1.5c0.8-1,1.3-2.5,1.3-4.4c0-1.9-0.4-3.4-1.2-4.4C56.2,9.7,55.1,9.2,53.5,9.2z M56.2,18.8
		c-0.6,0.9-1.5,1.3-2.7,1.3c-1.3,0-2.3-0.4-2.9-1.1c-0.6-0.8-0.9-2-0.9-3.8v-0.3c0-1.7,0.3-2.8,0.9-3.6c0.6-0.7,1.6-1.1,2.9-1.1
		c2.4,0,3.6,1.7,3.6,5C57.1,16.7,56.8,18,56.2,18.8z"/>
		<path class="st0" d="M65.9,9.2c-1.6,0-2.8,0.5-3.7,1.6c-0.9,1-1.3,2.5-1.3,4.4c0,1.2,0.2,2.2,0.6,3.1c0.4,0.9,1,1.6,1.7,2.1
		c0.8,0.5,1.6,0.7,2.6,0.7c1.6,0,2.8-0.5,3.7-1.6c0.9-1,1.3-2.5,1.3-4.4c0-1.8-0.4-3.3-1.3-4.3C68.7,9.7,67.5,9.2,65.9,9.2z
		 M68.8,18.8c-0.7,0.9-1.7,1.3-2.9,1.3c-1.3,0-2.2-0.4-2.9-1.3c-0.7-0.9-1-2.1-1-3.7c0-1.6,0.3-2.8,1-3.7c0.7-0.9,1.6-1.3,2.9-1.3
		c1.3,0,2.2,0.4,2.9,1.3c0.7,0.9,1,2.1,1,3.7C69.8,16.7,69.5,17.9,68.8,18.8z"/>
		<path class="st0" d="M11.6,15H7.3c-0.3,0-0.5,0.2-0.5,0.5v5.2c0,0.3,0.2,0.5,0.5,0.5h4.3c0.3,0,0.5-0.2,0.5-0.5v-5.2
		C12.1,15.2,11.9,15,11.6,15z"/>
		<path class="st0" d="M18.6,10h-4.3c-0.3,0-0.5,0.2-0.5,0.5v10.2c0,0.3,0.2,0.5,0.5,0.5h4.3c0.3,0,0.5-0.2,0.5-0.5V10.5
		C19.1,10.2,18.9,10,18.6,10z"/>
		<path class="st0" d="M4.6,17.9H0.3c-0.3,0-0.5,0.2-0.5,0.5v2.3c0,0.3,0.2,0.5,0.5,0.5h4.3c0.3,0,0.5-0.2,0.5-0.5v-2.3
		C5.2,18.2,4.9,17.9,4.6,17.9z"/>
		<path class="st0" d="M15.3,4.5c-4.4,5.8-11,9-14.1,10.2c-0.9,0.3-1.4,1.2-1.4,2.1v0c0.1,0,0.2-0.1,0.2-0.1
		c0.4-0.1,10.4-3.2,16.6-11.4l1.5,1l1-6.4l-5.4,3.6L15.3,4.5z"/>
	</g>
</svg>
